<?xml version="1.0" encoding="UTF-8"?>
<svg width="126px" height="26px" viewBox="0 0 126 26" version="1.1" xmlns="http://www.w3.org/2000/svg" xmlns:xlink="http://www.w3.org/1999/xlink">
    <!-- Generator: Sketch 53 (72520) - https://sketchapp.com -->
    <title>Anima logo</title>
    <desc>Created with Sketch.</desc>
    <defs>
        <polygon id="path-1" points="0.385996941 0.168 6.70531975 0.168 6.70531975 9.52837899 0.385996941 9.52837899"></polygon>
        <polygon id="path-3" points="0.201719048 0.361192559 21.701481 0.361192559 21.701481 20 0.201719048 20"></polygon>
    </defs>
    <g id="Page-1" stroke="none" stroke-width="1" fill="none" fill-rule="evenodd">
        <g id="Home-Copy" transform="translate(-897.000000, -590.000000)">
            <g id="Anima-logo" transform="translate(897.000000, 590.000000)">
                <g id="Group-23">
                    <g id="Group-3" transform="translate(6.000000, 0.000000)">
                        <mask id="mask-2" fill="white">
                            <use xlink:href="#path-1"></use>
                        </mask>
                        <g id="Clip-2"></g>
                        <path d="M5.66472308,0.16795 C5.60926154,0.82645 5.5538,1.48545 5.48918462,2.25395 C5.47518462,2.24195 5.56026154,2.32595 5.65772308,2.39495 C6.74756923,3.16995 7.00764615,4.12395 6.34103077,5.23095 C5.96249231,5.85895 5.86556923,6.45845 6.00233846,7.17245 C6.29310769,8.68445 5.09287692,9.75445 3.46456923,9.48745 C2.33218462,9.30195 1.42595385,8.75445 0.790030769,7.86145 C0.0555692308,6.82995 0.358723077,4.85945 1.40549231,3.73045 C1.53149231,3.59495 1.64941538,3.42595 1.81364615,3.35145 C3.30464615,2.67445 3.80110769,1.17495 4.88933846,0.16795 L5.66472308,0.16795 Z" id="Fill-1" fill="#F14943" mask="url(#mask-2)"></path>
                    </g>
                    <path d="M0,9.88879315 C0.591559269,8.48567255 1.17941799,7.08157925 1.77784971,5.68040406 C1.8539753,5.50239985 1.98085128,5.34287696 2.1917826,5 C2.38156793,5.44403782 2.57769705,5.75384295 2.63902044,6.0840748 C2.71197413,6.47704584 2.85470961,6.72119369 3.3130491,6.79365988 C3.80522218,6.87196228 4.08804989,7.14383209 4.26091842,7.60829662 C4.53317313,8.34025381 4.96243687,9.02260328 5.24050674,9.75358777 C5.5312642,10.5186168 5.75223987,11.308936 5.94836899,12.1002279 C6.18308956,13.0427748 5.58201459,13.477572 4.86305069,13.7805682 C3.24908246,14.4604859 0.825751187,13.4809764 0.231548668,11.9343825 C0.163352828,11.7554056 0.0777115394,11.5817785 0,11.4062061 L0,9.88879315 Z" id="Fill-4" fill="#F14943"></path>
                    <path d="M84.2707508,25.9536273 L79,25.9536273 C80.4436641,19.2954256 81.877458,12.6835507 83.3169662,6.04542396 L90.9228268,6.04542396 C91.1841305,10.0264469 91.4433563,13.9786443 91.7025821,17.9308417 C91.7420633,17.9452545 91.7820641,17.9606968 91.8215454,17.9751096 C91.9218071,17.7903168 92.0241467,17.6065535 92.1207719,17.4197018 C94.0013276,13.7979695 95.8881171,10.1793256 97.7520491,6.54935744 C97.9588063,6.14631361 98.1873822,5.99497914 98.6507677,6.00012657 C100.872629,6.02586373 103.095009,6.01145092 105.317909,6.01093618 L106,6.01093618 C104.515296,12.6959045 103.048255,19.2979993 101.572902,25.9428177 L96.2652672,25.9428177 C97.4102243,21.2591704 98.5463501,16.6089814 99.6829953,11.9587925 C99.6481895,11.9459239 99.6128641,11.9330553 99.5780583,11.9201867 C98.8855774,13.3125668 98.1915381,14.704432 97.5006157,16.0978416 C95.9520145,19.2166699 94.3956209,22.3329245 92.8683188,25.4620477 C92.6636395,25.880019 92.4241544,26.0097343 91.9696002,25.9994394 C90.6459384,25.9675254 89.321757,25.9881151 87.9404318,25.9881151 C87.6406857,21.2576262 87.3445761,16.5889065 87.048986,11.9191572 C87.0079463,11.9165835 86.9669065,11.9140098 86.9263863,11.9109214 C86.0442914,16.5739789 85.162716,21.2375512 84.2707508,25.9536273" id="Fill-6" fill="#000000"></path>
                    <path d="M45,25.9883997 C45.4431035,23.9395068 45.8660201,21.9729608 46.2934787,20.0074441 C47.2574055,15.5704921 48.2304165,11.1355988 49.177689,6.6945295 C49.2851845,6.19066963 49.4542502,5.98583181 49.9967745,6.00075717 C51.5087769,6.04295994 53.0227981,6.03060791 54.5358099,6.00487452 C54.9612498,5.99766917 55.1706894,6.12942415 55.3392504,6.54012913 C56.7023742,9.85870775 58.0917409,13.1659637 59.4745469,16.4768223 C59.5573134,16.6749694 59.6481546,16.8700285 59.8575942,17.056853 C60.0841927,16.0439866 60.3133146,15.0306055 60.5368851,14.016195 C61.0768859,11.5684345 61.630513,9.12324732 62.1392241,6.66879611 C62.2497477,6.1350855 62.4682714,5.99200782 62.9810199,6.00230118 C64.61263,6.03575459 66.2447448,6.01465321 68,6.01465321 C66.6288015,12.6904105 65.2712292,19.297717 63.9045728,25.9513436 C63.7213762,25.9642103 63.5467591,25.9873704 63.372142,25.9873704 C61.8182516,25.9899437 60.2643613,25.970901 58.7109756,25.9997224 C58.2951244,26.0074424 58.1184886,25.8545861 57.956993,25.4850545 C56.4979813,22.1407425 55.018278,18.8062092 53.544126,15.4691025 C53.4790231,15.3208782 53.4139202,15.1726538 53.2907798,14.8916451 C53.2095274,15.1500084 53.1545179,15.2838221 53.1252469,15.4238117 C52.4202177,18.7609184 51.7091324,22.0975104 51.0252995,25.4397637 C50.9390003,25.8623061 50.798701,26.0069278 50.3621582,25.9997224 C48.6094264,25.9719303 46.8561899,25.9883997 45,25.9883997" id="Fill-8" fill="#000000"></path>
                    <path d="M115.086736,11.8037112 C115.041167,11.8031963 114.995081,11.8021666 114.949512,11.8011369 C114.261834,13.9311038 113.574673,16.0610707 112.880781,18.211632 L117.019277,18.211632 C116.358009,16.0173078 115.722632,13.9105095 115.086736,11.8037112 M104,25.9906193 C104.476403,24.7250987 104.921737,23.5337176 105.372767,22.3449108 C107.368483,17.0897567 109.371967,11.8371769 111.349559,6.57584454 C111.517336,6.12946278 111.72861,5.99354031 112.194657,6.00023346 C114.099753,6.02700607 116.004849,6.01619406 117.909945,6.00486718 C118.254819,6.00280775 118.466094,6.06665013 118.606944,6.43786264 C121.036601,12.8493875 123.482829,19.2542191 125.924915,25.6616251 C125.952877,25.7362795 125.965823,25.8165973 126,25.9514901 C125.798046,25.9664209 125.624056,25.9895895 125.450065,25.9901044 C123.565682,25.9921638 121.680781,25.9798072 119.796917,25.9998867 C119.399741,26.0040056 119.209698,25.8969151 119.105614,25.4999597 C118.907803,24.7441484 118.627139,24.0099611 118.424668,23.2551795 C118.324726,22.8824224 118.139343,22.7809954 117.768577,22.7840846 C115.842768,22.8000452 113.916441,22.7990154 111.990632,22.7835697 C111.63799,22.7804806 111.476945,22.898383 111.384253,23.2356149 C111.165729,24.0290108 110.921831,24.8162285 110.65722,25.5957233 C110.604919,25.7512104 110.41384,25.9720844 110.284383,25.9736289 C108.218242,25.9978273 106.151583,25.9906193 104,25.9906193" id="Fill-10" fill="#000000"></path>
                    <g id="Group-14" transform="translate(22.000000, 6.000000)">
                        <mask id="mask-4" fill="white">
                            <use xlink:href="#path-3"></use>
                        </mask>
                        <g id="Clip-13"></g>
                        <path d="M14.0470524,6.18845 C13.9962429,6.18345 13.9454333,6.17795 13.8946238,6.17295 C12.8501476,8.24245 11.8056714,10.31245 10.7407667,12.42245 L14.732719,12.42245 C14.5011952,10.31795 14.2743857,8.25295 14.0470524,6.18845 L14.0470524,6.18845 Z M18.296719,0.37695 C19.4349571,6.92495 20.5648143,13.42595 21.701481,19.96595 L15.4189095,19.96595 C15.3057667,18.91795 15.1921,17.86995 15.0721476,16.76295 C13.8244333,16.76295 12.6139095,16.76345 11.4033857,16.76295 C10.6491,16.76295 9.89429048,16.78145 9.14105238,16.75445 C8.78695714,16.74195 8.62457619,16.86395 8.49990952,17.17245 C8.1683381,17.99245 7.81162381,18.80395 7.43290952,19.60495 C7.35538571,19.76745 7.13748095,19.98045 6.98190952,19.98195 C4.74838571,20.00645 2.51381429,19.99895 0.201719048,19.99895 C0.323242857,19.75745 0.401290476,19.57845 0.499242857,19.41095 C4.0988619,13.27145 7.7063381,7.13595 11.2907667,0.98845 C11.5600048,0.52695 11.8475762,0.34795 12.4101476,0.36195 C14.1062429,0.40245 15.8039095,0.37695 17.5005286,0.37695 L18.296719,0.37695 Z" id="Fill-12" fill="#000000" mask="url(#mask-4)"></path>
                    </g>
                    <path d="M79,6.0493078 C77.5399866,12.7437484 76.0984543,19.355102 74.6495296,26 L68,26 C68.046995,25.7491907 68.0839574,25.5148956 68.1357047,25.2831809 C69.5254896,19.0578465 70.9210829,12.8335443 72.297139,6.6045975 C72.3937692,6.16490714 72.5416187,5.99202419 73.0295219,6.00028129 C74.8237807,6.03072933 76.6185676,6.01215086 78.4133545,6.01473121 C78.578629,6.01524727 78.7444316,6.03382574 79,6.0493078" id="Fill-15" fill="#000000"></path>
                    <path d="M11.1496184,24.8404444 C10.6979537,24.7386766 10.246289,24.6348632 9.80120682,24.5065028 C8.24772323,24.0590313 6.68968249,23.6141167 5.17113709,23.0612976 C4.50376702,22.8183845 3.8748796,22.3801181 3.32245111,21.9162819 C2.08037313,20.8725226 1.67225456,19.005927 2.2732927,17.4973087 C2.55279822,16.7951619 3.04395829,16.3129155 3.81057307,16.2934824 C5.06834792,16.2617759 5.88762316,15.6588399 6.41169602,14.5296775 C6.92513551,13.4219936 7.86796029,12.9745221 9.03357933,13.0011147 C10.7278284,13.0399808 12.1987768,13.6495649 13.3608514,14.9122017 C14.0525263,15.6639539 14.4257067,16.5389525 14.1745568,17.6052133 C13.9613832,18.511407 14.2221538,19.2570225 14.9907939,19.8042162 C16.5169346,20.8904214 16.1442606,23.0802193 14.9862368,24.0063575 C14.602423,24.3137065 14.2084823,24.6251467 13.7547922,24.8199886 C13.5411122,24.9115285 13.3142672,24.9774986 13.0828649,25" id="Fill-17" fill="#F14943"></path>
                    <path d="M21.5239747,12.5015692 C22.0994437,12.0702951 21.8013092,10.9113689 22.9527425,11.0054025 C23.1132003,13.4187652 22.9200567,15.7440023 21.506146,17.7974777 C20.7083142,18.9564038 19.5326141,19.2621358 18.2068562,18.7816295 C16.9667749,18.3316471 15.942123,16.9314832 16.0025423,15.7607413 C16.0347329,15.1414001 16.3467342,14.7002796 16.8657459,14.3635313 C17.7081494,13.8180384 18.5465909,13.2636838 19.3597753,12.6768359 C20.0630163,12.1697441 20.7652668,11.957061 21.5239747,12.5015692" id="Fill-19" fill="#F14943"></path>
                    <path d="M16.9959787,4.09532626 C17.0419997,3.63438609 17.0476877,3.18998429 17.1428322,2.76745581 C17.2043659,2.49590657 17.3455314,2.10378734 17.5420255,2.03229893 C17.9836202,1.87225027 18.074628,2.34332684 18.149606,2.6484863 C18.264917,3.11902939 18.30525,3.6098453 18.3667837,4.09372577 C18.4934707,5.08229304 18.6077475,6.07246079 18.7359858,7.06102806 C18.8207885,7.71402663 18.9914281,8.36435771 18.9997016,9.01788977 C19.0198681,10.5762303 18.0161968,11.7243127 16.5130169,11.9643857 C15.0915371,12.1921883 13.5821521,11.3039182 13.1286644,9.96484439 C12.8835638,9.2424914 12.9849134,8.55161465 13.4647727,7.9813079 C14.1824933,7.12931549 14.5832379,6.17809291 14.693378,5.04494835 C14.779732,4.15241028 15.240459,3.85738724 16.1112381,3.94861498 C16.3739197,3.97582325 16.6340159,4.03397427 16.9959787,4.09532626" id="Fill-21" fill="#F14943"></path>
                </g>
            </g>
        </g>
    </g>
</svg>
